<?xml version="1.0" standalone="no"?><!DOCTYPE svg PUBLIC "-//W3C//DTD SVG 1.1//EN" "http://www.w3.org/Graphics/SVG/1.1/DTD/svg11.dtd"><svg t="1735104417670" class="icon" viewBox="0 0 1024 1024" version="1.1" xmlns="http://www.w3.org/2000/svg" p-id="68498" xmlns:xlink="http://www.w3.org/1999/xlink" width="200" height="200"><path d="M795.106 590.306H512c-24.094 0-42.165-18.07-42.165-42.165V265.035c0-24.094 18.07-42.164 42.165-42.164s42.165 18.07 42.165 42.164v240.941h240.94c24.095 0 42.166 18.071 42.166 42.165 0 24.094-18.071 42.165-42.165 42.165zM560.188 975.812c-174.682 0-331.294-96.377-415.623-246.965-12.047-18.07 0-48.188 18.07-54.212 18.07-12.047 48.189 0 54.212 18.07 66.259 126.495 192.753 204.8 337.318 204.8 210.823 0 379.482-168.658 379.482-379.481S764.988 138.54 554.165 138.54c-204.8-6.022-379.483 162.636-379.483 373.46 0 24.094-18.07 42.165-42.164 42.165S90.353 536.095 90.353 512c0-259.012 210.823-463.812 463.812-463.812S1024 252.988 1024 512 813.176 975.812 560.188 975.812z m-427.67-373.459c-12.047 0-24.094-6.024-30.118-18.07l-90.353-90.354c-18.07-18.07-12.047-42.164 0-60.235 18.07-18.07 42.165-12.047 60.235 0l90.353 96.377c18.07 18.07 12.047 42.164 0 60.235-12.047 6.023-24.094 12.047-30.117 12.047z m0 0c-12.047 0-18.07-6.024-30.118-18.07-18.07-18.071-12.047-42.165 0-60.236l96.376-90.353c18.071-18.07 42.165-12.047 60.236 0 18.07 18.07 12.047 42.165 0 60.235l-96.377 96.377c-6.023 6.023-18.07 12.047-30.117 12.047z" fill="#333333" p-id="68499"></path></svg>