<?xml version="1.0" standalone="no"?><!DOCTYPE svg PUBLIC "-//W3C//DTD SVG 1.1//EN" "http://www.w3.org/Graphics/SVG/1.1/DTD/svg11.dtd"><svg t="1735103806174" class="icon" viewBox="0 0 1065 1024" version="1.1" xmlns="http://www.w3.org/2000/svg" p-id="49188" xmlns:xlink="http://www.w3.org/1999/xlink" width="208.0078125" height="200"><path d="M286.702323 1023.986615H55.803818A55.85736 55.85736 0 0 1 0 968.182796V745.114762a55.870745 55.870745 0 0 1 55.803818-55.817203h230.898505a55.884131 55.884131 0 0 1 55.817204 55.817203v223.068034a55.870745 55.870745 0 0 1-55.817204 55.803819zM80.312523 943.674091h181.894481v-174.010467H80.312523zM1009.675659 1023.986615h-230.898505a55.870745 55.870745 0 0 1-55.817204-55.803819V745.114762a55.884131 55.884131 0 0 1 55.817204-55.817203h230.898505a55.870745 55.870745 0 0 1 55.803818 55.817203v223.068034a55.85736 55.85736 0 0 1-55.803818 55.803819z m-206.403185-80.312524H985.166954v-174.010467H803.272474z" fill="#040000" p-id="49189"></path><path d="M898.041252 733.670228a40.156262 40.156262 0 0 1-40.156262-40.156262V587.862842a10.708336 10.708336 0 0 0-10.708337-10.708337h-621.083514a10.708336 10.708336 0 0 0-10.708337 10.708337v105.651124a40.156262 40.156262 0 0 1-80.312523 0V587.862842a91.1681 91.1681 0 0 1 91.02086-91.02086h621.083514a91.1681 91.1681 0 0 1 91.02086 91.02086v105.651124a40.156262 40.156262 0 0 1-40.156261 40.156262z" fill="#040000" p-id="49190"></path><path d="M536.567969 577.114349a40.156262 40.156262 0 0 1-40.156262-40.156262V397.160755a40.156262 40.156262 0 1 1 80.312524 0v139.797332a40.156262 40.156262 0 0 1-40.156262 40.156262z" fill="#040000" p-id="49191"></path><path d="M533.797187 432.699046a55.643193 55.643193 0 0 1-39.473605-16.316827L336.589786 258.648423a55.897516 55.897516 0 0 1 0-78.973982l163.302131-163.302131a55.803818 55.803818 0 0 1 78.973981 0l68.038093 68.038093a40.211142 40.211142 0 0 1-56.861267 56.874652l-50.717358-50.717359-128.620507 128.620507 123.14587 123.078942 129.758267-129.758267a40.156262 40.156262 0 0 1 63.647674-47.638712l9.369795 9.369794a55.803818 55.803818 0 0 1 0 78.973982l-163.302131 163.302131a55.696735 55.696735 0 0 1-39.527147 16.182973z m145.901084-201.718288z" fill="#040000" p-id="49192"></path></svg>