<?xml version="1.0" standalone="no"?><!DOCTYPE svg PUBLIC "-//W3C//DTD SVG 1.1//EN" "http://www.w3.org/Graphics/SVG/1.1/DTD/svg11.dtd"><svg t="1735110614296" class="icon" viewBox="0 0 1024 1024" version="1.1" xmlns="http://www.w3.org/2000/svg" p-id="88280" xmlns:xlink="http://www.w3.org/1999/xlink" width="200" height="200"><path d="M287.744 723.69981a521.825524 521.825524 0 0 0 153.039238 199.387428c-2.633143 1.145905-5.290667 2.29181-7.94819 3.388952-91.257905-17.993143-171.836952-66.438095-231.131429-134.582857a440.832 440.832 0 0 1 82.334476-65.926095z m448.512 0a441.782857 441.782857 0 0 1 86.016 68.193523c-59.270095 68.144762-139.849143 116.589714-231.107048 134.582857l-7.94819-3.364571a521.97181 521.97181 0 0 0 150.308571-193.267809zM512 660.967619c55.856762 0 109.275429 10.630095 158.427429 30.037333A446.829714 446.829714 0 0 1 512 883.712a446.756571 446.756571 0 0 1-158.427429-192.707048A430.762667 430.762667 0 0 1 512 661.016381zM157.817905 292.59581a514.340571 514.340571 0 0 0 104.764952 78.945523A531.017143 531.017143 0 0 0 243.809524 512c0 48.664381 6.534095 95.768381 18.773333 140.434286A514.438095 514.438095 0 0 0 157.842286 731.428571 426.032762 426.032762 0 0 1 97.52381 512c0-77.726476 20.626286-150.528 56.58819-213.089524zM926.47619 512c0 80.359619-22.040381 155.477333-60.294095 219.428571a513.950476 513.950476 0 0 0-104.764952-78.994285A531.017143 531.017143 0 0 0 780.190476 512c0-48.664381-6.534095-95.768381-18.773333-140.434286A514.438095 514.438095 0 0 0 866.157714 292.571429 426.179048 426.179048 0 0 1 926.47619 512z m-232.423619-108.446476C702.537143 438.272 707.047619 474.599619 707.047619 512c0 37.400381-4.510476 73.728-12.995048 108.422095A502.588952 502.588952 0 0 0 512 586.50819c-64.121905 0-125.488762 11.995429-182.052571 33.938286A455.850667 455.850667 0 0 1 316.952381 512c0-37.400381 4.510476-73.728 12.995048-108.422095 56.56381 21.942857 117.930667 33.913905 182.052571 33.913905 62.22019 0 121.831619-11.288381 177.005714-31.98781zM512 140.288a446.756571 446.756571 0 0 1 158.403048 192.707048A430.762667 430.762667 0 0 1 512 362.983619c-55.856762 0-109.275429-10.605714-158.427429-30.012952a446.902857 446.902857 0 0 1 155.306667-190.537143z m-79.238095-42.73981l7.972571 3.364572a521.728 521.728 0 0 0-152.990476 199.43619 441.782857 441.782857 0 0 1-86.064762-68.242285C260.998095 163.986286 341.577143 115.516952 432.810667 97.52381z m389.485714 134.534096l-3.096381 3.169524a441.417143 441.417143 0 0 1-82.919619 65.04838 522.142476 522.142476 0 0 0-153.014857-199.411809c2.633143-1.145905 5.290667-2.267429 7.94819-3.364571 91.233524 17.993143 171.812571 66.462476 231.082667 134.582857z" p-id="88281" fill="#1296db"></path></svg>