<?xml version="1.0" standalone="no"?><!DOCTYPE svg PUBLIC "-//W3C//DTD SVG 1.1//EN" "http://www.w3.org/Graphics/SVG/1.1/DTD/svg11.dtd"><svg t="1735103796338" class="icon" viewBox="0 0 1024 1024" version="1.1" xmlns="http://www.w3.org/2000/svg" p-id="48894" xmlns:xlink="http://www.w3.org/1999/xlink" width="200" height="200"><path d="M679.663 419.876v63.845c0 0.958 0.575 1.725 1.342 2.109 0.384 0.191 0.767 0.191 0.959 0.191 0.575 0 1.15-0.191 1.533-0.575l112.16-91.452c0.574-0.384 0.958-1.15 0.958-1.918s-0.384-1.342-0.959-1.917L683.69 299.09c-0.767-0.575-1.725-0.767-2.492-0.383s-1.342 1.15-1.342 2.109v61.543H545.839L303.116 605.082h-93.945V662.6h117.72l242.722-242.724h110.05z m-315.77 60.777l40.454-40.646-77.457-77.456H209.171v57.325h93.945z" fill="#7A9EEE" p-id="48895"></path><path d="M683.69 542.963c-0.768-0.575-1.726-0.766-2.493-0.383s-1.342 1.15-1.342 2.109v60.201H569.613l-60.201-60.201-40.646 40.646 77.073 77.073h134.016v65.186c0 0.959 0.575 1.726 1.342 2.11 0.383 0.19 0.767 0.19 0.958 0.19 0.576 0 1.15-0.19 1.534-0.574l112.159-91.453c0.575-0.383 0.959-1.15 0.959-1.917s-0.384-1.342-0.959-1.917l-112.159-91.07z" fill="#7A9EEE" p-id="48896"></path><path d="M792.78 924.112h-30.676c-35.66 0-41.412-0.576-44.288-0.959-8.244-0.767-15.338-6.135-18.597-13.612-3.26-7.478-2.11-16.297 2.876-22.816 4.985-6.518 13.229-9.778 21.281-8.627 2.876 0 25.5 0 39.112 0.575h21.665c29.717 1.534 51.19-4.218 65.378-17.639 17.063-16.105 25.307-44.48 25.307-86.467v-524.75c0-56.942-46.205-102.956-103.147-103.148H233.904c-56.942 0-102.956 46.206-103.148 103.148v524.75c0 56.942 46.206 102.956 103.148 103.147h262.662c12.462 0 22.624 10.162 22.624 22.624 0 12.462-10.162 22.623-22.624 22.623H233.904c-81.867 0-148.011-66.336-148.203-148.203V249.817c0.192-81.675 66.336-148.011 148.203-148.011h537.403c81.675 0 148.011 66.336 148.203 148.01v524.75c0 55.217-12.845 94.137-39.303 119.253-24.158 21.09-55.409 32.018-87.427 30.293z m0 0" fill="#7A9EEE" p-id="48897"></path></svg>