<?xml version="1.0" standalone="no"?><!DOCTYPE svg PUBLIC "-//W3C//DTD SVG 1.1//EN" "http://www.w3.org/Graphics/SVG/1.1/DTD/svg11.dtd"><svg t="1735103800678" class="icon" viewBox="0 0 1024 1024" version="1.1" xmlns="http://www.w3.org/2000/svg" p-id="49043" xmlns:xlink="http://www.w3.org/1999/xlink" width="200" height="200"><path d="M298.666667 298.794667a64 64 0 0 0 64 64H469.333333v85.418666H210.773333a85.333333 85.333333 0 0 0-82.773333 85.333334v148.992a85.333333 85.333333 0 0 0-85.333333 85.376V853.333333A85.333333 85.333333 0 0 0 128 938.666667h85.333333a85.333333 85.333333 0 0 0 85.333334-84.650667v-86.784a85.333333 85.333333 0 0 0-85.333334-84.693333v-148.949334h256v148.949334a85.333333 85.333333 0 0 0-85.333333 84.693333v86.784A85.333333 85.333333 0 0 0 469.333333 938.666667h85.333334a85.333333 85.333333 0 0 0 85.333333-85.333334v-85.418666a85.333333 85.333333 0 0 0-85.333333-85.333334v-148.992h256v148.949334a85.333333 85.333333 0 0 0-85.333334 85.376V853.333333A85.333333 85.333333 0 0 0 810.666667 938.666667h85.333333a85.333333 85.333333 0 0 0 85.333333-85.333334v-85.418666a85.333333 85.333333 0 0 0-85.333333-85.333334v-148.992a85.333333 85.333333 0 0 0-85.333333-85.376h-256V362.794667h108.885333A64 64 0 0 0 725.333333 298.752V149.333333A64 64 0 0 0 661.333333 85.333333H360.448A64 64 0 0 0 298.666667 149.333333v149.461334zM128 767.872h85.333333v85.546667H128v-85.546667z m341.333333 0h85.333334v85.546667h-85.333334v-85.546667z m341.333334 0h85.333333v0.213333h0.170667v85.333334h-85.333334V853.333333H810.666667v-85.461333zM384 170.709333h256v106.709334H384V170.709333z" p-id="49044"></path></svg>