<?xml version="1.0" standalone="no"?><!DOCTYPE svg PUBLIC "-//W3C//DTD SVG 1.1//EN" "http://www.w3.org/Graphics/SVG/1.1/DTD/svg11.dtd"><svg t="1735103811324" class="icon" viewBox="0 0 1024 1024" version="1.1" xmlns="http://www.w3.org/2000/svg" p-id="49340" xmlns:xlink="http://www.w3.org/1999/xlink" width="200" height="200"><path d="M512.079 576.734h269.54a126.248 126.248 0 1 0-17.043-63.124H512.079V151.91h274.59A116.78 116.78 0 1 0 900.292 8.617 116.148 116.148 0 0 0 796.77 71.741H480.517a36.612 36.612 0 0 0-31.562 40.4v401.47H239.383a116.78 116.78 0 0 0-115.518-111.1 118.673 118.673 0 0 0 0 236.716 116.148 116.148 0 0 0 102.893-63.124h222.197V914.45a36.612 36.612 0 0 0 31.562 40.4h299.208a126.248 126.248 0 0 0 111.099 63.123 118.673 118.673 0 1 0 0-236.715 126.248 126.248 0 0 0-126.248 93.423H512.079z m378.745-110.467a42.924 42.924 0 0 1 36.612 19.569 37.243 37.243 0 0 1 0 39.137 42.924 42.924 0 0 1-36.612 19.568 39.768 39.768 0 1 1 0-78.905z m9.468-378.745a39.768 39.768 0 1 1-39.137 39.137 39.137 39.137 0 0 1 39.137-39.137z m-742.97 453.232a38.506 38.506 0 0 1-33.457 19.568 39.137 39.137 0 0 1 0-78.905 38.506 38.506 0 0 1 33.456 19.568 39.768 39.768 0 0 1 0 39.769z m733.502 319.408a39.768 39.768 0 1 1-42.293 39.137 41.03 41.03 0 0 1 42.293-39.137z" p-id="49341"></path></svg>