<?xml version="1.0" standalone="no"?><!DOCTYPE svg PUBLIC "-//W3C//DTD SVG 1.1//EN" "http://www.w3.org/Graphics/SVG/1.1/DTD/svg11.dtd"><svg t="1735104261679" class="icon" viewBox="0 0 1024 1024" version="1.1" xmlns="http://www.w3.org/2000/svg" p-id="58937" xmlns:xlink="http://www.w3.org/1999/xlink" width="200" height="200"><path d="M512 0c282.752 0 512 229.248 512 512S794.752 1024 512 1024 0 794.752 0 512 229.248 0 512 0z" fill="#32ABD1" p-id="58938"></path><path d="M512 192c176.768 0 320 143.232 320 320S688.768 832 512 832 192 688.768 192 512s143.232-320 320-320z" fill="#FFFFFF" p-id="58939"></path><path d="M576 576v-117.376h64V576h-64z m-192 0v-117.376c0-70.656 57.344-128 128-128s128 57.344 128 128h-64c0-35.328-28.672-64-64-64s-64 28.672-64 64V576h-64z" fill="#32ABD1" p-id="58940"></path><path d="M576 693.376H448a106.624 106.624 0 0 1 0-213.248h128a106.624 106.624 0 0 1 0 213.248zM512 544c-23.552 0-42.624 19.072-42.624 42.624s19.072 42.624 42.624 42.624 42.624-19.072 42.624-42.624S535.552 544 512 544z" fill="#32ABD1" p-id="58941"></path></svg>