<?xml version="1.0" standalone="no"?><!DOCTYPE svg PUBLIC "-//W3C//DTD SVG 1.1//EN" "http://www.w3.org/Graphics/SVG/1.1/DTD/svg11.dtd"><svg t="1735104246641" class="icon" viewBox="0 0 1024 1024" version="1.1" xmlns="http://www.w3.org/2000/svg" p-id="57943" xmlns:xlink="http://www.w3.org/1999/xlink" width="200" height="200"><path d="M512 0C229.23264 0 0 229.22752 0 512c0 282.76736 229.23264 512 512 512s512-229.23264 512-512C1024 229.22752 794.76736 0 512 0z m103.56736 187.98592c81.26976 83.8912 143.52896 156.64128 186.78272 219.55584l-53.08416 36.70016c-45.22496-67.5072-106.8288-142.21824-184.82176-224.13824l51.1232-32.11776z m-239.87712 9.17504l58.33216 22.9376c-40.63744 100.2752-95.03232 176.95744-161.87904 230.0416l-49.15712-42.5984c68.8128-52.43392 119.936-122.56256 152.704-210.3808z m401.1008 598.36928c-104.8576-36.0448-193.34144-87.81824-265.43616-154.67008-73.40032 69.46816-161.22368 121.24672-263.46496 154.01472l-36.0448-53.08416c100.93056-32.11264 186.13248-80.6144 255.60064-144.83968-48.50176-53.74464-87.81824-114.69824-119.28064-183.51104l53.08416-30.80704c27.53024 64.2304 62.91968 121.25184 107.48416 171.05408 47.19104-54.39488 85.85728-117.96992 114.69312-190.05952l57.02144 25.55904c-34.07872 80.60928-76.68224 150.08256-127.80544 208.41472 70.12864 62.91456 156.64128 111.41632 260.18816 144.18432l-36.03968 53.74464z" fill="#FF4F4F" p-id="57944"></path></svg>