<?xml version="1.0" standalone="no"?><!DOCTYPE svg PUBLIC "-//W3C//DTD SVG 1.1//EN" "http://www.w3.org/Graphics/SVG/1.1/DTD/svg11.dtd"><svg t="1735103618982" class="icon" viewBox="0 0 1024 1024" version="1.1" xmlns="http://www.w3.org/2000/svg" p-id="39807" xmlns:xlink="http://www.w3.org/1999/xlink" width="200" height="200"><path d="M451.2 80H96c-25.6 3.2-44.8 22.4-44.8 48v339.2c0 25.6 19.2 44.8 44.8 44.8h355.2c25.6 0 44.8-19.2 44.8-44.8V128c0-25.6-19.2-48-44.8-48z m-48 246.4H313.6v92.8c0 22.4-16 38.4-38.4 38.4s-38.4-16-38.4-38.4v-92.8H144c-22.4 0-38.4-16-38.4-38.4s16-38.4 38.4-38.4h92.8V172.8c0-22.4 16-38.4 38.4-38.4s38.4 16 38.4 38.4v76.8h92.8c22.4 0 38.4 19.2 35.2 41.6-3.2 19.2-16 35.2-38.4 35.2zM928 80H576c-25.6 0-44.8 19.2-44.8 44.8v339.2c0 25.6 19.2 44.8 44.8 44.8h352c25.6 0 44.8-19.2 44.8-44.8V128c0-25.6-19.2-44.8-44.8-48z m-48 243.2c-6.4 3.2-9.6 3.2-16 3.2h-230.4c-22.4 0-38.4-16-38.4-38.4s16-38.4 38.4-38.4H864c22.4 0 38.4 16 38.4 38.4 3.2 16-6.4 28.8-22.4 35.2z m-428.8 204.8H96c-25.6 0-44.8 19.2-44.8 44.8v339.2c0 25.6 19.2 44.8 44.8 44.8h355.2c25.6 0 44.8-19.2 44.8-44.8V572.8c0-25.6-19.2-44.8-44.8-44.8zM403.2 864c-3.2 9.6-6.4 16-12.8 19.2-6.4 6.4-16 9.6-22.4 9.6-12.8 0-22.4-6.4-28.8-16l-9.6-12.8-54.4-67.2L224 864l-6.4 9.6c-12.8 16-38.4 19.2-54.4 6.4-6.4-3.2-9.6-9.6-12.8-16-6.4-12.8-3.2-25.6 6.4-38.4L227.2 736l-60.8-76.8c-9.6-9.6-9.6-25.6-6.4-38.4 3.2-6.4 6.4-9.6 12.8-16 16-12.8 41.6-9.6 54.4 6.4l6.4 9.6 41.6 54.4 41.6-54.4 6.4-9.6c12.8-16 38.4-19.2 54.4-6.4 6.4 3.2 9.6 9.6 12.8 16 6.4 12.8 3.2 28.8-6.4 38.4L326.4 736l73.6 92.8c3.2 3.2 6.4 9.6 6.4 12.8 0 6.4 0 12.8-3.2 22.4zM928 528H576c-25.6 0-44.8 19.2-44.8 44.8v339.2c0 25.6 19.2 44.8 44.8 44.8h352c25.6 0 44.8-19.2 44.8-44.8V572.8c0-25.6-19.2-44.8-44.8-44.8z m-60.8 307.2h-230.4c-22.4 0-38.4-16-38.4-38.4s16-38.4 38.4-38.4H864c22.4 0 38.4 16 38.4 38.4 0 16-9.6 28.8-22.4 35.2-3.2 3.2-9.6 3.2-12.8 3.2z m12.8-112c-6.4 3.2-9.6 3.2-16 3.2h-230.4c-22.4 0-38.4-16-38.4-38.4s16-38.4 38.4-38.4H864c22.4 0 38.4 16 38.4 38.4 0 16-6.4 28.8-22.4 35.2z" fill="#5F6379" p-id="39808"></path></svg>