<?xml version="1.0" standalone="no"?><!DOCTYPE svg PUBLIC "-//W3C//DTD SVG 1.1//EN" "http://www.w3.org/Graphics/SVG/1.1/DTD/svg11.dtd"><svg t="1735104205302" class="icon" viewBox="0 0 1024 1024" version="1.1" xmlns="http://www.w3.org/2000/svg" p-id="56058" xmlns:xlink="http://www.w3.org/1999/xlink" width="200" height="200"><path d="M512 924.79c-227.614 0-412.79-185.178-412.79-412.79S284.386 99.21 512 99.21c227.61 0 412.79 185.178 412.79 412.79 0 65.962-15.102 129.006-44.886 187.376-28.4 55.652-69.856 104.974-119.904 142.64-12.73 9.578-30.798 7.024-40.376-5.7-9.576-12.724-7.024-30.802 5.7-40.376 90.12-67.822 141.804-171.314 141.804-283.94 0-195.818-159.308-355.126-355.126-355.126S156.878 316.182 156.878 512s159.308 355.126 355.126 355.126c15.92 0 28.832 12.91 28.832 28.832s-12.912 28.832-28.836 28.832z" fill="#2D527C" p-id="56059"></path><path d="M511.998 511.998m-193.664 0a193.664 193.664 0 1 0 387.328 0 193.664 193.664 0 1 0-387.328 0Z" fill="#CEE8FA" p-id="56060"></path><path d="M512 734.498c-122.686 0-222.498-99.814-222.498-222.498S389.314 289.502 512 289.502 734.498 389.314 734.498 512 634.686 734.498 512 734.498z m0-387.332c-90.89 0-164.834 73.942-164.834 164.834s73.946 164.834 164.834 164.834 164.834-73.942 164.834-164.834-73.944-164.834-164.834-164.834zM512 1024c-15.924 0-28.832-12.91-28.832-28.832v-95.612c0-15.922 12.908-28.832 28.832-28.832 15.92 0 28.832 12.91 28.832 28.832v95.612c0 15.924-12.908 28.832-28.832 28.832zM512 153.276c-15.924 0-28.832-12.91-28.832-28.832V28.832C483.168 12.91 496.076 0 512 0c15.92 0 28.832 12.91 28.832 28.832v95.612c0 15.924-12.908 28.832-28.832 28.832zM124.448 540.832H28.832C12.908 540.832 0 527.92 0 512s12.908-28.832 28.832-28.832h95.616c15.924 0 28.832 12.91 28.832 28.832s-12.908 28.832-28.832 28.832zM995.168 540.832h-95.612c-15.922 0-28.832-12.91-28.832-28.832s12.91-28.832 28.832-28.832h95.612c15.922 0 28.832 12.91 28.832 28.832s-12.908 28.832-28.832 28.832z" fill="#2D527C" p-id="56061"></path></svg>