<?xml version="1.0" standalone="no"?><!DOCTYPE svg PUBLIC "-//W3C//DTD SVG 1.1//EN" "http://www.w3.org/Graphics/SVG/1.1/DTD/svg11.dtd"><svg t="1735103561428" class="icon" viewBox="0 0 1024 1024" version="1.1" xmlns="http://www.w3.org/2000/svg" p-id="35353" xmlns:xlink="http://www.w3.org/1999/xlink" width="200" height="200"><path d="M227.555556 28.444444h389.404444a19.911111 19.911111 0 0 1 14.734222 6.542223l271.132445 298.211555a28.444444 28.444444 0 0 1 7.395555 19.143111V938.666667a56.888889 56.888889 0 0 1-56.888889 56.888889H227.555556a56.888889 56.888889 0 0 1-56.888889-56.888889V85.333333a56.888889 56.888889 0 0 1 56.888889-56.888889z" fill="#0A617F" p-id="35354"></path><path d="M625.777778 30.492444a19.911111 19.911111 0 0 1 5.916444 4.465778l271.132445 298.24a28.444444 28.444444 0 0 1 5.176889 8.135111H682.666667a56.888889 56.888889 0 0 1-56.888889-56.888889V30.492444z" fill="#FFFFFF" fill-opacity=".65" p-id="35355"></path><path d="M278.641778 520.192h22.528l51.655111 79.189333 51.655111-79.189333h22.528l-64.853333 96.483556V682.666667h-18.659556v-65.991111l-64.853333-96.483556z m214.812444 41.642667c16.839111 0 29.127111 4.323556 37.319111 13.198222 6.826667 7.736889 10.467556 18.432 10.467556 32.085333V682.666667h-17.066667v-19.797334c-4.551111 6.371556-10.695111 11.605333-17.976889 15.701334a59.733333 59.733333 0 0 1-29.354666 7.281777c-11.832889 0-21.162667-2.958222-28.216889-8.874666a29.667556 29.667556 0 0 1-10.922667-23.665778c0-13.425778 5.233778-23.438222 16.156445-30.264889 9.557333-6.371556 23.210667-9.784889 40.96-10.012444l28.216888-0.455111v-6.144c0-19.797333-10.24-29.582222-30.72-29.582223-8.647111 0-15.701333 1.592889-21.162666 5.233778a25.571556 25.571556 0 0 0-11.832889 16.839111l-17.976889-1.365333c2.503111-12.288 8.647111-21.617778 18.204444-27.534222 8.647111-5.461333 19.797333-8.192 33.905778-8.192z m29.582222 64.398222l-27.079111 0.455111c-26.396444 0.455111-39.594667 9.102222-39.594666 26.168889 0 5.461333 2.048 9.784889 6.599111 13.425778 4.551111 3.413333 10.467556 5.233778 17.749333 5.233777 11.150222 0 20.935111-3.640889 29.582222-10.922666 8.419556-7.054222 12.743111-15.246222 12.743111-24.348445v-10.012444z m97.848889-64.398222c17.976889 0 30.264889 7.281778 36.864 22.300444 4.551111-7.736889 10.012444-13.425778 16.384-16.839111 5.688889-3.640889 12.515556-5.461333 20.707556-5.461333 12.288 0 22.072889 3.868444 29.809778 11.605333 7.281778 7.964444 11.150222 18.659556 11.150222 32.085333V682.666667h-18.204445v-74.183111c0-10.467556-2.275556-18.204444-6.599111-23.210667-4.551111-5.461333-11.832889-7.964444-21.845333-7.964445a24.177778 24.177778 0 0 0-19.342222 8.647112c-5.461333 5.916444-7.964444 13.425778-7.964445 22.983111V682.666667h-18.204444v-74.183111c0-20.935111-9.102222-31.175111-27.079111-31.175112a25.116444 25.116444 0 0 0-20.707556 10.012445 35.242667 35.242667 0 0 0-8.192 23.665778V682.666667h-18.204444v-117.646223h18.204444v15.701334c8.874667-12.743111 20.024889-18.887111 33.223111-18.887111z m146.773334-44.828445h17.976889V682.666667h-17.976889v-165.660445z" fill="#FFFFFF" p-id="35356"></path></svg>