<?xml version="1.0" standalone="no"?><!DOCTYPE svg PUBLIC "-//W3C//DTD SVG 1.1//EN" "http://www.w3.org/Graphics/SVG/1.1/DTD/svg11.dtd"><svg t="1735110564294" class="icon" viewBox="0 0 1024 1024" version="1.1" xmlns="http://www.w3.org/2000/svg" p-id="83144" xmlns:xlink="http://www.w3.org/1999/xlink" width="200" height="200"><path d="M227.555556 56.888889h568.888888a227.555556 227.555556 0 0 1 227.555556 227.555555v455.111112a227.555556 227.555556 0 0 1-227.555556 227.555555H227.555556a227.555556 227.555556 0 0 1-227.555556-227.555555V284.444444a227.555556 227.555556 0 0 1 227.555556-227.555555z m0 56.888889a170.666667 170.666667 0 0 0-170.666667 170.666666v455.111112a170.666667 170.666667 0 0 0 170.666667 170.666666h568.888888a170.666667 170.666667 0 0 0 170.666667-170.666666V284.444444a170.666667 170.666667 0 0 0-170.666667-170.666666H227.555556z" fill="#F8AF37" p-id="83145"></path><path d="M509.952 461.710222c-27.989333 77.824-81.237333 141.994667-160.426667 193.877334l-32.768-40.277334C393.216 564.792889 443.733333 501.987556 468.309333 426.211556c7.509333-26.624 13.653333-55.296 18.432-86.698667h-194.56v467.626667H242.346667v-515.413334h249.856c3.413333-34.816 5.461333-72.362667 5.461333-111.957333h49.834667c0 40.277333-2.048 77.824-4.778667 111.957333h239.616v439.637334c0 45.738667-22.528 68.949333-66.218667 68.949333h-107.178666l-13.653334-49.152 104.448 2.730667c21.845333 0 32.768-11.605333 32.768-33.450667V339.512889H537.258667c-3.413333 25.941333-7.509333 50.517333-12.970667 73.045333 70.997333 66.901333 130.389333 133.12 178.858667 197.973334l-36.864 37.546666c-39.594667-58.709333-92.16-120.832-156.330667-186.368z" fill="#F8AF37" p-id="83146"></path></svg>